<svg width="56" height="56" viewBox="0 0 56 56" fill="none" xmlns="http://www.w3.org/2000/svg">
<rect width="56" height="56" rx="28" fill="white"/>
<path d="M18.3292 38.9681C15.7772 38.9681 14.3874 37.5903 14.3874 35.0503V21.2361C14.3874 18.7201 15.7892 17.3542 18.0776 17.3542H20.9051C22.1751 17.3542 22.7742 17.5699 23.6368 18.2528L24.2239 18.7201C24.9188 19.2712 25.446 19.4629 26.3086 19.4629H36.7441C39.2961 19.4629 40.6859 20.8407 40.6859 23.3807V35.0503C40.6859 37.5903 39.3081 38.9681 36.9598 38.9681H18.3292ZM16.6878 23.7521H38.3496V23.0093C38.3496 22.2545 37.8104 21.7753 36.9358 21.7753H18.1136C17.227 21.7753 16.6878 22.2545 16.6878 23.0093V23.7521Z" fill="#0D0D0D"/>
<rect x="33" width="23" height="15" rx="7.5" fill="#FF671F"/>
<path d="M41.7108 9.66628H38.2062V8.8742L42.1883 3.7962H43.0454V8.48358H43.8809V9.66628H43.0454V11.5H41.7108V9.66628ZM41.7108 8.48358V6.19414L39.888 8.48358H41.7108ZM47.4309 11.5651C47.0258 11.5651 46.6569 11.4783 46.3241 11.3047C45.9986 11.1311 45.7165 10.8779 45.4778 10.5452C45.2463 10.2124 45.0655 9.80733 44.9353 9.32992C44.8051 8.8525 44.74 8.31359 44.74 7.7132C44.74 7.09111 44.8087 6.54136 44.9461 6.06394C45.0836 5.57929 45.2716 5.17421 45.5104 4.84869C45.7491 4.51595 46.0312 4.26639 46.3567 4.10001C46.6822 3.92641 47.0366 3.8396 47.42 3.8396C47.8251 3.8396 48.1904 3.93002 48.5159 4.11086C48.8487 4.28447 49.1308 4.53765 49.3623 4.87039C49.601 5.19591 49.7818 5.59737 49.9048 6.07479C50.035 6.55221 50.1001 7.09111 50.1001 7.6915C50.1001 8.31359 50.0314 8.86696 49.8939 9.35162C49.7565 9.82904 49.5684 10.2341 49.3297 10.5669C49.091 10.8924 48.8089 11.1419 48.4834 11.3155C48.1579 11.4819 47.807 11.5651 47.4309 11.5651ZM47.4309 10.3499C47.6117 10.3499 47.7817 10.2992 47.9408 10.1979C48.1 10.0967 48.2374 9.94116 48.3532 9.73138C48.4761 9.51437 48.5738 9.2395 48.6461 8.90675C48.7185 8.56677 48.7546 8.16169 48.7546 7.6915C48.7546 7.23579 48.7185 6.84155 48.6461 6.50881C48.581 6.17606 48.487 5.9048 48.364 5.69503C48.2483 5.47802 48.1072 5.31888 47.9408 5.21761C47.7817 5.1091 47.6081 5.05485 47.42 5.05485C47.2392 5.05485 47.0692 5.10549 46.9101 5.20676C46.7509 5.30803 46.6099 5.46717 46.4869 5.68418C46.3639 5.89395 46.2663 6.16883 46.1939 6.50881C46.1216 6.84155 46.0854 7.24302 46.0854 7.7132C46.0854 8.61741 46.212 9.2829 46.4652 9.70968C46.7256 10.1365 47.0475 10.3499 47.4309 10.3499Z" fill="black"/>
</svg>
