<svg width="29" height="21" viewBox="0 0 29 21" fill="none" xmlns="http://www.w3.org/2000/svg">
<path d="M22.4685 20.2389H7.07519C3.08608 20.2389 0.00037602 17.3292 0.00037602 13.7976C0.00037602 10.9466 1.58429 8.61179 4.16548 8.09555C4.32974 4.95119 7.27465 2.82757 10.1844 3.5198C11.6627 1.41964 13.9506 -1.44765e-05 16.8485 -1.44765e-05C21.6355 -1.44765e-05 25.3195 3.67232 25.3195 8.77605C27.5605 9.70293 28.9098 11.8852 28.9098 14.2904C28.9098 17.599 26.0587 20.2389 22.4685 20.2389ZM11.9208 16.238H17.0245C17.7637 16.238 18.1157 15.8626 18.1157 15.053V11.1812C18.1157 10.489 17.8458 10.1136 17.2826 10.0314V8.9403C17.2826 7.03961 16.1446 5.78421 14.4551 5.78421C12.789 5.78421 11.6509 7.03961 11.6509 8.9403V10.0432C11.0878 10.1136 10.8062 10.489 10.8062 11.1812V15.053C10.8062 15.8626 11.1699 16.238 11.9208 16.238ZM13.0354 10.008V8.84644C13.0354 7.80223 13.5986 7.1452 14.4551 7.1452C15.3233 7.1452 15.8865 7.80223 15.8865 8.84644V10.008H13.0354Z" fill="#AA4DFF"/>
</svg>
